<svg id="Layer_2" data-name="Layer 2" xmlns="http://www.w3.org/2000/svg" viewBox="0 0 913.3 913.3"><defs><style>.cls-1{fill:#fbd21c;}.cls-2{fill:#e9e7e8;}.cls-3{fill:#848386;}</style></defs><circle class="cls-1" cx="456.65" cy="456.65" r="456.65"/><path d="M1426.65,947.74a425.15,425.15,0,0,1-121,297.67c-1.31,1.35-2.64,2.69-4,4q-3.5,3.49-7.06,6.9a426.23,426.23,0,0,1-589.26,0q-3.57-3.4-7.06-6.9c-1.34-1.34-2.66-2.68-4-4a426.23,426.23,0,0,1,1.36-596.7c.87-.89,1.74-1.77,2.62-2.65q3.62-3.62,7.3-7.14a426.26,426.26,0,0,1,588.78,0q3.69,3.52,7.3,7.14c.88.88,1.75,1.76,2.62,2.65a425.12,425.12,0,0,1,122.34,299Z" transform="translate(-543.35 -491.09)"/><path class="cls-2" d="M1000,1344.39a395.14,395.14,0,1,1,154.38-31.14A394.29,394.29,0,0,1,1000,1344.39Z" transform="translate(-543.35 -491.09)"/><path class="cls-3" d="M1000,1314.39a365.14,365.14,0,1,1,142.69-28.77A364.36,364.36,0,0,1,1000,1314.39Z" transform="translate(-543.35 -491.09)"/><path d="M1000,1284.39a335.19,335.19,0,1,1,131-26.4A334.43,334.43,0,0,1,1000,1284.39Z" transform="translate(-543.35 -491.09)"/><path d="M1305.66,1245.41c-1.31,1.35-2.64,2.69-4,4q-3.5,3.49-7.06,6.9L1000,1148,705.37,1256.33q-3.57-3.4-7.06-6.9c-1.34-1.34-2.66-2.68-4-4L803,1006.26H953.55L798.22,879.4,695.69,648.7c.87-.89,1.74-1.77,2.62-2.65q3.62-3.62,7.3-7.14L1000,745.83l294.39-106.92q3.69,3.52,7.3,7.14c.88.88,1.75,1.76,2.62,2.65L1197.13,889.86h-149l153.59,126.86Z" transform="translate(-543.35 -491.09)"/><polygon class="cls-1" points="717.62 723.22 456.65 627.26 195.68 723.22 277.6 543 488.26 543 277.6 370.95 197.24 190.13 456.65 284.35 716.07 190.13 635.7 370.95 427.4 370.95 635.7 543 717.62 723.22"/></svg>