<svg xmlns="http://www.w3.org/2000/svg" xmlns:xlink="http://www.w3.org/1999/xlink" viewBox="0 0 2000 2000"><defs><style>.cls-1{fill:url(#linear-gradient);}.cls-2{fill:url(#linear-gradient-2);}.cls-3{fill:url(#linear-gradient-3);}.cls-4{fill:url(#linear-gradient-4);}.cls-5{fill:url(#linear-gradient-5);}.cls-6{fill:url(#linear-gradient-6);}.cls-7{fill:url(#linear-gradient-7);}.cls-8{fill:url(#linear-gradient-8);}.cls-9{fill:url(#linear-gradient-9);}.cls-10{fill:url(#linear-gradient-10);}.cls-11{fill:url(#linear-gradient-11);}.cls-12{font-size:97.94px;fill:#fff;font-family:LEMONMILK-Light, LEMON MILK;font-weight:300;letter-spacing:0.07em;}.cls-13{letter-spacing:0.09em;}.cls-14{letter-spacing:0.08em;}.cls-15{letter-spacing:-0.01em;}.cls-16{letter-spacing:0.04em;}.cls-17{letter-spacing:-0.01em;}</style><linearGradient id="linear-gradient" x1="2000" x2="0" y2="2000" gradientUnits="userSpaceOnUse"><stop offset="0" stop-color="#0e004d"/><stop offset="1" stop-color="#160010"/></linearGradient><linearGradient id="linear-gradient-2" x1="478.64" y1="1038.31" x2="235.17" y2="794.84" gradientUnits="userSpaceOnUse"><stop offset="0" stop-color="#2e3192"/><stop offset="1" stop-color="#92278f"/></linearGradient><linearGradient id="linear-gradient-3" x1="262.3" y1="1033.52" x2="239.73" y2="1010.95" gradientTransform="translate(796.35 121.91) rotate(45)" xlink:href="#linear-gradient-2"/><linearGradient id="linear-gradient-4" x1="473.86" y1="821.96" x2="451.29" y2="799.39" gradientTransform="translate(708.72 -89.65) rotate(45)" xlink:href="#linear-gradient-2"/><linearGradient id="linear-gradient-5" x1="305.05" y1="864.71" x2="196.98" y2="756.64" gradientTransform="translate(-499.71 414.94) rotate(-45)" xlink:href="#linear-gradient-2"/><linearGradient id="linear-gradient-6" x1="516.6" y1="1076.26" x2="408.54" y2="968.2" gradientTransform="translate(-587.34 626.49) rotate(-45)" xlink:href="#linear-gradient-2"/><linearGradient id="linear-gradient-7" x1="768.17" y1="1021.86" x2="558.18" y2="811.87" xlink:href="#linear-gradient-2"/><linearGradient id="linear-gradient-8" x1="1020.89" y1="970.24" x2="813.9" y2="763.25" xlink:href="#linear-gradient-2"/><linearGradient id="linear-gradient-9" x1="1297.09" y1="1051.33" x2="1049.2" y2="803.45" xlink:href="#linear-gradient-2"/><linearGradient id="linear-gradient-10" x1="1562.85" y1="1053.93" x2="1338.76" y2="829.83" xlink:href="#linear-gradient-2"/><linearGradient id="linear-gradient-11" x1="1798.79" y1="970.24" x2="1591.8" y2="763.25" xlink:href="#linear-gradient-2"/></defs><g id="Layer_4" data-name="Layer 4"><rect class="cls-1" width="2000" height="2000"/></g><g id="v2"><path class="cls-2" d="M235.17,794.84a172.16,172.16,0,1,0,243.47,0A172.16,172.16,0,0,0,235.17,794.84Zm219.91,219.91c-54.14,54.13-142.22,54.12-196.35,0s-54.14-142.21,0-196.34,142.21-54.15,196.35,0S509.21,960.61,455.08,1014.75Z"/><rect class="cls-3" x="174.6" y="1006.27" width="152.82" height="31.92" rx="9.68" transform="translate(-649.31 476.9) rotate(-45)"/><rect class="cls-4" x="386.16" y="794.72" width="152.82" height="31.92" rx="9.68" transform="translate(-437.75 564.53) rotate(-45)"/><rect class="cls-5" x="174.6" y="794.72" width="152.82" height="31.92" rx="9.68" transform="translate(646.75 59.95) rotate(45)"/><rect class="cls-6" x="386.16" y="1006.27" width="152.82" height="31.92" rx="9.68" transform="translate(858.31 -27.68) rotate(45)"/><path class="cls-7" d="M580.59,1063.59a16.15,16.15,0,0,1,0-32.3h108c30.91,0,51.22-22.15,51.22-49.37s-20.31-48.45-51.22-48.45H637.34c-50.29,0-84.9-36.44-84.9-81.66s34.61-81.67,84.9-81.67H745.76a16.15,16.15,0,0,1,0,32.3h-108c-30.91,0-51.22,22.15-51.22,49.37s20.31,48.45,51.22,48.45H689c50.29,0,84.9,36.44,84.9,81.66s-34.61,81.67-84.9,81.67Z"/><path class="cls-8" d="M900.32,802.44H813.58a16.15,16.15,0,0,1,0-32.3h207.63a16.15,16.15,0,0,1,0,32.3H934.47v247.3a17.08,17.08,0,1,1-34.15,0Z"/><path class="cls-9" d="M1148.09,935.32a18.2,18.2,0,0,1-4.62-11.53c0-9.23,6.92-17.07,16.61-17.07h36c36.91,0,65.52-15.69,65.52-52.14s-28.61-52.14-65.52-52.14h-90v247.3c0,9.23-7.84,16.62-17.07,16.62S1072,1059,1072,1049.74V788.14a18,18,0,0,1,18-18h119.5c48.45,0,85.82,36.91,85.82,84.44,0,54.9-44.76,84.43-98.74,84.43l90.44,99.66a16.07,16.07,0,0,1,4.61,11.54c0,8.76-6.92,16.15-17.07,16.15-4.62,0-9.23-1.39-12.46-5.08Z"/><path class="cls-10" d="M1526,944.09H1413.85a16.38,16.38,0,0,1,0-32.76H1526V874c0-44.76-33.68-77.52-75.21-77.52s-75.21,32.76-75.21,77.52v175.78a17.07,17.07,0,1,1-34.14,0V874c0-63.22,48.45-109.81,109.35-109.81,61.37,0,109.35,46.59,109.35,109.81v175.78a17.07,17.07,0,1,1-34.14,0Z"/><path class="cls-11" d="M1678.23,802.44h-86.74a16.15,16.15,0,0,1,0-32.3h207.62a16.15,16.15,0,1,1,0,32.3h-86.74v247.3a17.07,17.07,0,1,1-34.14,0Z"/><text class="cls-12" transform="translate(418.49 1245.61)">p<tspan class="cls-13" x="69.46" y="0">l</tspan><tspan class="cls-14" x="135.05" y="0">an </tspan><tspan class="cls-15" x="338.71" y="0">y</tspan><tspan class="cls-14" x="403.06" y="0">our vic</tspan><tspan class="cls-16" x="877.73" y="0">t</tspan><tspan class="cls-14" x="939.59" y="0">o</tspan><tspan class="cls-17" x="1034.31" y="0">r</tspan><tspan class="cls-14" x="1097.41" y="0">y</tspan></text></g></svg>