<svg xmlns="http://www.w3.org/2000/svg" xmlns:xlink="http://www.w3.org/1999/xlink" viewBox="0 0 1762 1587.04"><defs><style>.cls-1{fill:url(#linear-gradient);}.cls-2{fill:url(#linear-gradient-2);}.cls-3{fill:url(#linear-gradient-3);}</style><linearGradient id="linear-gradient" x1="502.62" y1="-298.97" x2="781.11" y2="183.38" gradientTransform="translate(2328.44 960.93) rotate(180)" gradientUnits="userSpaceOnUse"><stop offset="0" stop-color="#2e3192"/><stop offset="1" stop-color="#336eb6"/></linearGradient><linearGradient id="linear-gradient-2" x1="1888.95" y1="-261.52" x2="2167.44" y2="220.85" xlink:href="#linear-gradient"/><linearGradient id="linear-gradient-3" x1="805.54" y1="-958.13" x2="1857.24" y2="863.46" xlink:href="#linear-gradient"/></defs><g id="Layer_6" data-name="Layer 6"><path class="cls-1" d="M1514.11,1116.61a535.72,535.72,0,0,0,0-233.24l205-205a795.63,795.63,0,0,1,0,643.15Z" transform="translate(-119 -206.48)"/><path class="cls-2" d="M472.74,883.37a536.36,536.36,0,0,0,0,233.28l-205,205a795.68,795.68,0,0,1,0-643.19Z" transform="translate(-119 -206.48)"/><path class="cls-3" d="M119,300.81l323.15-27.3,84.58,84.57c277.3-202.13,656-202.13,933.36,0l77-77,323.18,27.3-225,224.94L1448.08,720.55l-1.42,1.45-323.19-27.3,149.36-149.36c-170.78-105.17-388-105.17-558.81,0l734.06,734,187.25,187.29L1881,1712.32l-323.19,27.3-97.72-97.72c-277.3,202.16-656.06,202.16-933.36,0l-78.45,78.45-323.19-27.3,413.65-413.65h0l323.15,27.31L714,1454.64c170.81,105.21,388,105.17,558.81,0L538.77,720.58,351.52,533.33Z" transform="translate(-119 -206.48)"/></g></svg>