<svg xmlns="http://www.w3.org/2000/svg" xmlns:xlink="http://www.w3.org/1999/xlink" viewBox="0 0 2000 2000"><defs><style>.cls-1{fill:url(#linear-gradient);}.cls-2{fill:url(#linear-gradient-2);}.cls-3{fill:url(#linear-gradient-3);}.cls-4{fill:url(#linear-gradient-4);}.cls-5{fill:url(#linear-gradient-5);}.cls-6{fill:url(#linear-gradient-6);}.cls-7{fill:url(#linear-gradient-7);}.cls-8{fill:url(#linear-gradient-8);}.cls-9{fill:url(#linear-gradient-9);}</style><linearGradient id="linear-gradient" x1="2000" x2="0" y2="2000" gradientUnits="userSpaceOnUse"><stop offset="0" stop-color="#0e004d"/><stop offset="1" stop-color="#0d2a47"/></linearGradient><linearGradient id="linear-gradient-2" x1="1688.86" y1="-107.38" x2="1762.05" y2="19.39" gradientTransform="translate(2328.44 960.93) rotate(180)" gradientUnits="userSpaceOnUse"><stop offset="0" stop-color="#2e3192"/><stop offset="1" stop-color="#336eb6"/></linearGradient><linearGradient id="linear-gradient-3" x1="2053.21" y1="-97.53" x2="2126.41" y2="29.24" xlink:href="#linear-gradient-2"/><linearGradient id="linear-gradient-4" x1="1768.47" y1="-280.61" x2="2044.88" y2="198.13" xlink:href="#linear-gradient-2"/><linearGradient id="linear-gradient-5" x1="1156.61" y1="1117.59" x2="1179.87" y2="1117.59" gradientTransform="matrix(1, 0, 0, 1, 0, 0)" xlink:href="#linear-gradient-2"/><linearGradient id="linear-gradient-6" x1="637.56" y1="999.99" x2="891.9" y2="999.99" gradientTransform="matrix(1, 0, 0, 1, 0, 0)" xlink:href="#linear-gradient-2"/><linearGradient id="linear-gradient-7" x1="934.19" y1="999.99" x2="1215.66" y2="999.99" gradientTransform="matrix(1, 0, 0, 1, 0, 0)" xlink:href="#linear-gradient-2"/><linearGradient id="linear-gradient-8" x1="1200.34" y1="995.23" x2="1510.38" y2="995.23" gradientTransform="matrix(1, 0, 0, 1, 0, 0)" xlink:href="#linear-gradient-2"/><linearGradient id="linear-gradient-9" x1="1391.05" y1="999.89" x2="1809" y2="999.89" gradientTransform="matrix(1, 0, 0, 1, 0, 0)" xlink:href="#linear-gradient-2"/></defs><g id="Layer_4" data-name="Layer 4"><rect class="cls-1" width="2000" height="2000"/></g><g id="v1"><path class="cls-2" d="M557.66,1030.65a140.86,140.86,0,0,0,0-61.3l53.87-53.87a209.12,209.12,0,0,1,0,169Z"/><path class="cls-3" d="M284,969.35a141.06,141.06,0,0,0,0,61.31l-53.87,53.87a209.17,209.17,0,0,1,0-169Z"/><path class="cls-4" d="M191,816.24l84.93-7.18,22.23,22.23a208.71,208.71,0,0,1,245.3,0l20.25-20.24,84.93,7.17-59.12,59.12L540.3,926.55l-.37.39L455,919.76l39.26-39.25a140.43,140.43,0,0,0-146.87,0L540.3,1073.43l49.22,49.22,64.56,64.56-84.94,7.17-25.68-25.68a208.7,208.7,0,0,1-245.3,0l-20.62,20.62-84.94-7.18,108.71-108.71h0l84.93,7.17-38.87,38.88a140.41,140.41,0,0,0,146.87,0L301.32,926.56l-49.21-49.21Z"/><polygon class="cls-5" points="1179.87 1133.74 1156.61 1101.55 1156.78 1101.44 1160.9 1107.19 1179.87 1133.74"/><path class="cls-6" d="M710.76,816.15l-73.2,73.21h89.87v294.48h74.14V889.36H891.9V816.15Z"/><path class="cls-7" d="M1180.1,1134.09l-.23-.34h0l-19-26.55-4.12-5.75-45.6-63.82c39.46-13.91,68-55.19,68-102.4,0-66.15-56.34-119.07-125-119.07h-120l.21,367.69h73.91V1010l116.92,173.66,0,0H1205l0-.1,10.57.2ZM1055.53,982l-47.45-.22V889.36h47.45c24.85,0,47.44,20.08,47.44,46.31S1080.62,982.2,1055.53,982Z"/><path class="cls-8" d="M1334.52,806.83h-2.27l-131.91,283,48.38,67L1260,1132.3h147.11l23.28,51.34h80Zm-45.84,262.53L1333.62,971l44.7,98.32Z"/><path class="cls-9" d="M1391.05,816.05l33.31,73.21h132.85v294.48h74.13V889.26h104.45L1809,816.05Z"/></g></svg>