<svg xmlns="http://www.w3.org/2000/svg" xmlns:xlink="http://www.w3.org/1999/xlink" viewBox="0 0 1618 417.1"><defs><style>.cls-1{fill:url(#linear-gradient);}.cls-2{fill:url(#linear-gradient-2);}.cls-3{fill:url(#linear-gradient-3);}.cls-4{fill:url(#linear-gradient-4);}.cls-5{fill:url(#linear-gradient-5);}.cls-6{fill:url(#linear-gradient-6);}.cls-7{fill:url(#linear-gradient-7);}.cls-8{fill:url(#linear-gradient-8);}</style><linearGradient id="linear-gradient" x1="1688.86" y1="-2.49" x2="1762.05" y2="124.28" gradientTransform="translate(2328.44 960.93) rotate(180)" gradientUnits="userSpaceOnUse"><stop offset="0" stop-color="#2e3192"/><stop offset="1" stop-color="#336eb6"/></linearGradient><linearGradient id="linear-gradient-2" x1="2053.21" y1="7.35" x2="2126.41" y2="134.13" xlink:href="#linear-gradient"/><linearGradient id="linear-gradient-3" x1="1768.47" y1="-175.73" x2="2044.88" y2="303.02" xlink:href="#linear-gradient"/><linearGradient id="linear-gradient-4" x1="965.61" y1="326.14" x2="988.87" y2="326.14" gradientTransform="matrix(1, 0, 0, 1, 0, 0)" xlink:href="#linear-gradient"/><linearGradient id="linear-gradient-5" x1="637.56" y1="895.11" x2="891.9" y2="895.11" gradientTransform="matrix(1, 0, 0, 1, 0, 0)" xlink:href="#linear-gradient"/><linearGradient id="linear-gradient-6" x1="934.19" y1="895.11" x2="1215.66" y2="895.11" gradientTransform="matrix(1, 0, 0, 1, 0, 0)" xlink:href="#linear-gradient"/><linearGradient id="linear-gradient-7" x1="1200.34" y1="890.35" x2="1510.38" y2="890.35" gradientTransform="matrix(1, 0, 0, 1, 0, 0)" xlink:href="#linear-gradient"/><linearGradient id="linear-gradient-8" x1="1391.05" y1="895.01" x2="1809" y2="895.01" gradientTransform="matrix(1, 0, 0, 1, 0, 0)" xlink:href="#linear-gradient"/></defs><g id="v1"><path class="cls-1" d="M557.66,925.76a140.86,140.86,0,0,0,0-61.3l53.87-53.87a209.12,209.12,0,0,1,0,169Z" transform="translate(-191 -686.56)"/><path class="cls-2" d="M284,864.46a141.06,141.06,0,0,0,0,61.31l-53.87,53.87a209.15,209.15,0,0,1,0-169Z" transform="translate(-191 -686.56)"/><path class="cls-3" d="M191,711.35l84.93-7.17,22.23,22.23a208.68,208.68,0,0,1,245.3,0l20.25-20.25,84.93,7.18-59.12,59.12L540.3,821.67l-.37.38L455,814.87l39.26-39.25a140.41,140.41,0,0,0-146.87,0L540.3,968.54l49.22,49.23,64.56,64.55-84.94,7.18-25.68-25.69a208.67,208.67,0,0,1-245.3,0l-20.62,20.62-84.94-7.17L301.31,968.55h0l84.93,7.18-38.87,38.87a140.41,140.41,0,0,0,146.87,0L301.32,821.68l-49.21-49.22Z" transform="translate(-191 -686.56)"/><polygon class="cls-4" points="988.87 342.29 965.61 310.11 965.78 309.99 969.9 315.74 988.87 342.29"/><path class="cls-5" d="M710.76,711.27l-73.2,73.2h89.87V1079h74.14V784.47H891.9v-73.2Z" transform="translate(-191 -686.56)"/><path class="cls-6" d="M1180.1,1029.2l-.23-.33v0l-19-26.54-4.12-5.76-45.6-63.81c39.46-13.92,68-55.19,68-102.4,0-66.15-56.34-119.07-125-119.07h-120L934.4,1079h73.91V905.14l116.92,173.66,0,0H1205l0-.1,10.57.2ZM1055.53,877.08l-47.45-.21v-92.4h47.45c24.85,0,47.44,20.09,47.44,46.32S1080.62,877.32,1055.53,877.08Z" transform="translate(-191 -686.56)"/><path class="cls-7" d="M1334.52,701.94h-2.27L1200.34,985l48.38,67,11.23-24.52h147.11l23.28,51.33h80Zm-45.84,262.53,44.94-98.32,44.7,98.32Z" transform="translate(-191 -686.56)"/><path class="cls-8" d="M1391.05,711.17l33.31,73.2h132.85v294.48h74.13V784.37h104.45l73.21-73.2Z" transform="translate(-191 -686.56)"/></g></svg>